<?xml version="1.0" standalone="no"?>
<!DOCTYPE svg PUBLIC "-//W3C//DTD SVG 20010904//EN"
 "http://www.w3.org/TR/2001/REC-SVG-20010904/DTD/svg10.dtd">
<svg version="1.0" xmlns="http://www.w3.org/2000/svg"
 width="24.000000pt" height="24.000000pt" viewBox="0 0 24.000000 24.000000"
 preserveAspectRatio="xMidYMid meet">

<g transform="translate(0.000000,24.000000) scale(0.100000,-0.100000)"
fill="#000000" stroke="none">
<path d="M34 227 c-2 -7 -3 -60 -2 -118 l3 -104 85 0 85 0 3 82 3 82 -33 3
c-29 3 -33 7 -36 36 -3 31 -4 32 -53 32 -32 0 -51 -5 -55 -13z m114 -94 c-16
-2 -40 -2 -55 0 -16 2 -3 4 27 4 30 0 43 -2 28 -4z m0 -30 c-16 -2 -40 -2 -55
0 -16 2 -3 4 27 4 30 0 43 -2 28 -4z m0 -30 c-16 -2 -40 -2 -55 0 -16 2 -3 4
27 4 30 0 43 -2 28 -4z m-8 -23 c0 -5 -16 -10 -36 -10 -21 0 -33 4 -29 10 3 6
19 10 36 10 16 0 29 -4 29 -10z"/>
<path d="M160 207 c0 -20 5 -27 20 -27 11 0 20 4 20 8 0 5 -9 17 -20 27 -20
18 -20 17 -20 -8z"/>
</g>
</svg>
