<?xml version="1.0" standalone="no"?>
<!DOCTYPE svg PUBLIC "-//W3C//DTD SVG 20010904//EN"
 "http://www.w3.org/TR/2001/REC-SVG-20010904/DTD/svg10.dtd">
<svg version="1.0" xmlns="http://www.w3.org/2000/svg"
 width="24.000000pt" height="24.000000pt" viewBox="0 0 24.000000 24.000000"
 preserveAspectRatio="xMidYMid meet">

<g transform="translate(0.000000,24.000000) scale(0.100000,-0.100000)"
fill="#000000" stroke="none">
<path d="M70 205 c-54 -29 -92 -175 -48 -183 15 -3 18 4 18 43 0 63 22 113 54
121 67 16 106 -29 106 -121 0 -39 3 -46 18 -43 26 5 27 61 0 119 -32 73 -89
97 -148 64z"/>
<path d="M57 113 c-11 -10 -8 -93 3 -93 6 0 10 23 10 50 0 51 -1 55 -13 43z"/>
<path d="M170 71 c0 -28 5 -51 10 -51 13 0 13 87 0 95 -6 4 -10 -13 -10 -44z"/>
</g>
</svg>
