<?xml version="1.0" standalone="no"?>
<!DOCTYPE svg PUBLIC "-//W3C//DTD SVG 20010904//EN"
 "http://www.w3.org/TR/2001/REC-SVG-20010904/DTD/svg10.dtd">
<svg version="1.0" xmlns="http://www.w3.org/2000/svg"
 width="24.000000pt" height="24.000000pt" viewBox="0 0 24.000000 24.000000"
 preserveAspectRatio="xMidYMid meet">

<g transform="translate(0.000000,24.000000) scale(0.100000,-0.100000)"
fill="#000000" stroke="none">
<path d="M92 228 c-7 -7 -12 -22 -12 -34 0 -16 -7 -24 -22 -26 -22 -3 -23 -8
-23 -83 l0 -80 85 0 85 0 0 80 c0 75 -1 80 -22 83 -16 2 -23 10 -23 26 0 26
-17 46 -40 46 -9 0 -21 -5 -28 -12z m52 -24 c8 -21 -1 -34 -24 -34 -10 0 -21
4 -24 9 -10 16 5 41 24 41 10 0 21 -7 24 -16z"/>
</g>
</svg>
