<?xml version="1.0" standalone="no"?>
<!DOCTYPE svg PUBLIC "-//W3C//DTD SVG 20010904//EN"
 "http://www.w3.org/TR/2001/REC-SVG-20010904/DTD/svg10.dtd">
<svg version="1.0" xmlns="http://www.w3.org/2000/svg"
 width="24.000000pt" height="24.000000pt" viewBox="0 0 24.000000 24.000000"
 preserveAspectRatio="xMidYMid meet">

<g transform="translate(0.000000,24.000000) scale(0.100000,-0.100000)"
fill="#000000" stroke="none">
<path d="M165 230 c-11 -4 -32 -5 -47 -3 -23 4 -29 1 -37 -20 -6 -14 -19 -28
-31 -32 -12 -4 -19 -9 -16 -12 7 -7 156 58 156 69 0 4 -1 8 -2 7 -2 0 -12 -4
-23 -9z"/>
<path d="M163 193 c-4 -10 -11 -21 -17 -25 -7 -5 -6 -8 3 -8 13 0 40 28 41 43
0 14 -21 7 -27 -10z"/>
<path d="M202 185 c-6 -14 -8 -25 -3 -25 5 0 16 11 25 25 13 20 14 25 3 25 -8
0 -19 -11 -25 -25z"/>
<path d="M3 124 c-4 -10 1 -22 10 -29 10 -7 17 -25 17 -42 0 -43 16 -53 90
-53 74 0 90 10 90 53 0 17 7 35 17 42 9 7 14 19 10 29 -9 24 -225 24 -234 0z
m24 -16 c-3 -8 -6 -5 -6 6 -1 11 2 17 5 13 3 -3 4 -12 1 -19z m190 0 c-3 -8
-6 -5 -6 6 -1 11 2 17 5 13 3 -3 4 -12 1 -19z"/>
</g>
</svg>
