<?xml version="1.0" standalone="no"?>
<!DOCTYPE svg PUBLIC "-//W3C//DTD SVG 20010904//EN"
 "http://www.w3.org/TR/2001/REC-SVG-20010904/DTD/svg10.dtd">
<svg version="1.0" xmlns="http://www.w3.org/2000/svg"
 width="24.000000pt" height="24.000000pt" viewBox="0 0 24.000000 24.000000"
 preserveAspectRatio="xMidYMid meet">

<g transform="translate(0.000000,24.000000) scale(0.100000,-0.100000)"
fill="#000000" stroke="none">
<path d="M190 225 c-9 -11 -35 -15 -101 -15 l-89 0 0 -75 0 -75 60 0 c54 0 62
3 69 23 9 23 6 37 -9 37 -5 0 -11 -12 -13 -27 -3 -24 -4 -22 -6 8 -1 43 33 84
49 59 8 -13 12 -11 25 7 9 12 21 20 29 17 7 -3 19 2 26 11 10 12 10 18 0 30
-7 8 -16 15 -20 15 -4 0 -13 -7 -20 -15z m35 -16 c0 -8 -7 -14 -16 -14 -9 0
-24 -7 -33 -15 -15 -12 -19 -12 -27 1 -8 11 -14 9 -33 -12 -15 -17 -32 -26
-47 -24 -13 1 -16 0 -6 -2 13 -3 17 -14 16 -41 -1 -23 -3 -29 -6 -14 -6 29
-23 29 -24 0 l-2 -23 -4 23 c-2 12 -8 22 -13 22 -5 0 -11 -10 -13 -22 -2 -13
-5 6 -6 42 l-1 65 87 3 c66 2 89 6 96 18 10 18 32 13 32 -7z"/>
<path d="M40 170 c0 -5 9 -10 20 -10 11 0 20 5 20 10 0 6 -9 10 -20 10 -11 0
-20 -4 -20 -10z"/>
<path d="M158 111 c10 -6 10 -10 -3 -21 -8 -7 -15 -21 -15 -32 0 -10 -4 -16
-10 -13 -5 3 -10 2 -10 -3 0 -14 29 -36 37 -28 3 3 1 6 -5 6 -7 0 -12 3 -12 8
0 4 18 7 40 8 22 0 40 -1 40 -2 0 -2 -12 -10 -27 -18 -16 -8 -22 -15 -15 -16
17 0 62 45 62 62 0 10 -2 10 -9 -1 -5 -7 -14 -10 -20 -7 -6 4 -9 12 -5 17 7
12 -29 49 -48 49 -11 0 -11 -2 0 -9z m37 -44 c0 -16 -6 -22 -22 -22 -17 0 -21
5 -18 20 2 11 4 20 4 20 17 9 36 -1 36 -18z"/>
<path d="M208 102 c9 -10 19 -17 21 -16 6 5 -20 34 -30 34 -5 0 -1 -8 9 -18z"/>
</g>
</svg>
