<?xml version="1.0" standalone="no"?>
<!DOCTYPE svg PUBLIC "-//W3C//DTD SVG 20010904//EN"
 "http://www.w3.org/TR/2001/REC-SVG-20010904/DTD/svg10.dtd">
<svg version="1.0" xmlns="http://www.w3.org/2000/svg"
 width="24.000000pt" height="24.000000pt" viewBox="0 0 24.000000 24.000000"
 preserveAspectRatio="xMidYMid meet">

<g transform="translate(0.000000,24.000000) scale(0.100000,-0.100000)"
fill="#000000" stroke="none">
<path d="M10 160 l0 -70 40 0 c22 0 40 -4 40 -10 0 -5 5 -10 10 -10 6 0 10 7
10 15 0 11 -12 15 -45 15 l-45 0 0 60 0 60 100 0 99 0 4 -62 3 -63 2 68 2 67
-110 0 -110 0 0 -70z"/>
<path d="M30 160 l0 -50 39 0 c30 0 40 4 44 20 4 16 14 20 51 20 44 0 46 1 46
30 l0 30 -90 0 -90 0 0 -50z"/>
<path d="M143 133 c15 -2 37 -2 50 0 12 2 0 4 -28 4 -27 0 -38 -2 -22 -4z"/>
<path d="M126 98 c-11 -44 -7 -88 9 -88 11 0 15 12 16 43 1 38 2 39 8 12 3
-17 14 -31 24 -33 14 -3 17 4 17 42 0 46 0 46 -34 46 -26 0 -35 -5 -40 -22z"/>
<path d="M73 53 c9 -2 23 -2 30 0 6 3 -1 5 -18 5 -16 0 -22 -2 -12 -5z"/>
<path d="M173 13 c9 -2 23 -2 30 0 6 3 -1 5 -18 5 -16 0 -22 -2 -12 -5z"/>
</g>
</svg>
