<svg width="20" height="18" viewBox="0 0 20 18" fill="none" xmlns="http://www.w3.org/2000/svg">
<path d="M20 3.66667L8.66667 3.66667M8.66667 3.66667C8.66667 2.19391 7.47276 1 6 1C4.52724 1 3.33333 2.19391 3.33333 3.66667M8.66667 3.66667C8.66667 5.13943 7.47276 6.33333 6 6.33333C4.52724 6.33333 3.33333 5.13943 3.33333 3.66667M3.33333 3.66667L0 3.66667M20 14.3333L16.6667 14.3333M16.6667 14.3333C16.6667 12.8606 15.4728 11.6667 14 11.6667C12.5272 11.6667 11.3333 12.8606 11.3333 14.3333M16.6667 14.3333C16.6667 15.8061 15.4728 17 14 17C12.5272 17 11.3333 15.8061 11.3333 14.3333M11.3333 14.3333L1.69528e-07 14.3333" stroke="#0E1012" stroke-width="2"/>
</svg>
