<?xml version="1.0" standalone="no"?>
<!DOCTYPE svg PUBLIC "-//W3C//DTD SVG 20010904//EN"
 "http://www.w3.org/TR/2001/REC-SVG-20010904/DTD/svg10.dtd">
<svg version="1.0" xmlns="http://www.w3.org/2000/svg"
 width="24.000000pt" height="24.000000pt" viewBox="0 0 24.000000 24.000000"
 preserveAspectRatio="xMidYMid meet">

<g transform="translate(0.000000,24.000000) scale(0.100000,-0.100000)"
fill="#000000" stroke="none">
<path d="M80 220 c0 -16 7 -20 38 -22 l37 -1 -33 -4 c-18 -3 -40 1 -48 8 -11
9 -14 8 -14 -9 0 -12 -4 -24 -10 -27 -5 -3 -10 -24 -10 -45 0 -21 5 -42 10
-45 6 -3 10 -15 10 -27 0 -17 3 -18 14 -9 8 7 30 11 48 8 l33 -4 -37 -1 c-31
-2 -38 -6 -38 -22 0 -16 7 -20 35 -20 23 0 35 5 35 14 0 7 11 34 25 60 l24 46
-24 46 c-14 26 -25 53 -25 60 0 9 -12 14 -35 14 -28 0 -35 -4 -35 -20z m72
-57 c39 -35 7 -110 -44 -100 -22 4 -22 4 3 6 33 1 49 19 49 52 0 30 -14 45
-50 52 l-25 4 24 2 c14 0 33 -6 43 -16z m-72 -3 c0 -5 -5 -10 -11 -10 -5 0 -7
5 -4 10 3 6 8 10 11 10 2 0 4 -4 4 -10z m-23 -52 c-3 -7 -5 -2 -5 12 0 14 2
19 5 13 2 -7 2 -19 0 -25z m67 6 c3 -8 2 -12 -4 -9 -6 3 -10 10 -10 16 0 14 7
11 14 -7z m-44 -34 c0 -5 -2 -10 -4 -10 -3 0 -8 5 -11 10 -3 6 -1 10 4 10 6 0
11 -4 11 -10z"/>
</g>
</svg>
