<svg width="24" height="24" viewBox="0 0 24 24" fill="none" xmlns="http://www.w3.org/2000/svg">
<path d="M23.8251 16.9591L21.186 12.6399V8.14286C21.186 3.65287 17.0652 0 12.0002 0C6.93509 0 2.81435 3.65287 2.81435 8.14286V12.6399L0.175114 16.959C0.0554271 17.1548 -0.00481165 17.3749 0.000300254 17.5976C0.00541215 17.8203 0.0756993 18.038 0.204274 18.2293C0.33285 18.4207 0.515302 18.5792 0.733755 18.6892C0.952207 18.7993 1.19917 18.8571 1.45043 18.8571H6.70418C6.6898 18.9984 6.682 19.1411 6.682 19.2857C6.682 20.536 7.2423 21.7351 8.23964 22.6192C9.23698 23.5033 10.5897 24 12.0001 24C13.4106 24 14.7632 23.5033 15.7606 22.6192C16.7579 21.7351 17.3182 20.536 17.3182 19.2857C17.3182 19.1411 17.3104 18.9984 17.296 18.8571H22.5498C22.801 18.8571 23.0479 18.7992 23.2664 18.6892C23.4848 18.5791 23.6672 18.4206 23.7958 18.2293C23.9243 18.0379 23.9946 17.8203 23.9997 17.5976C24.0048 17.3749 23.9446 17.1549 23.8249 16.9591H23.8251ZM15.3844 19.2857C15.3848 19.698 15.2893 20.1059 15.1039 20.484C14.9185 20.8621 14.6472 21.2023 14.3069 21.4833C13.9666 21.7643 13.5646 21.9801 13.126 22.1173C12.6875 22.2544 12.2217 22.31 11.7578 22.2805C11.2939 22.2509 10.8419 22.137 10.4299 21.9457C10.0179 21.7544 9.65482 21.4899 9.3633 21.1686C9.07178 20.8474 8.85807 20.4764 8.73552 20.0787C8.61297 19.681 8.58421 19.2651 8.65103 18.8571H15.3492C15.3725 18.9991 15.3842 19.1423 15.3844 19.2857ZM2.26211 17.1429L4.7482 13.0744V8.14286C4.7482 6.43789 5.51225 4.80276 6.87225 3.59717C8.23226 2.39158 10.0768 1.71429 12.0002 1.71429C13.9235 1.71429 15.7681 2.39158 17.1281 3.59717C18.4881 4.80276 19.2521 6.43789 19.2521 8.14286V13.0744L21.7381 17.1429H2.26211Z" fill="black"/>
</svg>
