<?xml version="1.0" standalone="no"?>
<!DOCTYPE svg PUBLIC "-//W3C//DTD SVG 20010904//EN"
 "http://www.w3.org/TR/2001/REC-SVG-20010904/DTD/svg10.dtd">
<svg version="1.0" xmlns="http://www.w3.org/2000/svg"
 width="230.000000pt" height="187.000000pt" viewBox="0 0 230.000000 187.000000"
 preserveAspectRatio="xMidYMid meet">

<g transform="translate(0.000000,187.000000) scale(0.100000,-0.100000)"
fill="#000000" stroke="none">
<path d="M1030 1441 c-352 -112 -510 -498 -343 -833 49 -97 163 -212 254 -256
171 -83 379 -83 541 -1 72 37 173 129 224 207 75 112 118 285 97 387 l-11 50
-1 -55 c-1 -70 -30 -174 -63 -231 -37 -63 -124 -142 -199 -180 -56 -29 -76
-33 -160 -37 -203 -9 -352 76 -432 246 -30 62 -32 75 -32 172 0 122 17 169 87
238 60 59 100 76 184 76 58 -1 79 -6 123 -29 110 -61 158 -192 115 -318 -24
-71 -105 -137 -170 -137 -37 0 -28 -18 14 -27 67 -14 154 -8 198 15 55 28 109
92 136 161 17 43 22 78 22 151 1 86 -2 101 -30 160 -57 119 -153 203 -275 241
-78 24 -204 24 -279 0z"/>
</g>
</svg>
