<?xml version="1.0" standalone="no"?>
<!DOCTYPE svg PUBLIC "-//W3C//DTD SVG 20010904//EN"
 "http://www.w3.org/TR/2001/REC-SVG-20010904/DTD/svg10.dtd">
<svg version="1.0" xmlns="http://www.w3.org/2000/svg"
 width="24" height="24" viewBox="0 0 398.000000 342.000000"
 preserveAspectRatio="xMidYMid meet">

<g transform="translate(0.000000,342.000000) scale(0.100000,-0.100000)"
fill="#000000" stroke="none">
<path d="M1630 2740 c0 -5 -16 -6 -37 -3 -24 4 -34 3 -30 -4 4 -6 -2 -13 -13
-16 -11 -3 -18 -1 -15 3 8 13 -37 -2 -57 -19 -10 -9 -28 -19 -41 -22 -14 -3
-21 -12 -19 -22 2 -9 -3 -17 -10 -17 -9 0 -9 -3 2 -10 13 -8 12 -10 -2 -10
-19 0 -25 -16 -8 -22 6 -2 4 -11 -5 -23 -14 -17 -16 -17 -11 -2 3 9 1 17 -4
17 -20 0 -9 -33 18 -58 15 -13 21 -21 14 -17 -9 5 -12 1 -10 -11 2 -13 -3 -19
-14 -18 -20 2 -24 -11 -8 -19 6 -3 5 -4 -2 -3 -7 2 -12 13 -11 25 3 24 -12 28
-21 5 -8 -22 -9 -21 16 -44 18 -16 19 -23 9 -33 -10 -10 -11 -8 -6 6 4 10 2
17 -4 17 -6 0 -11 -6 -12 -12 -1 -7 -5 -2 -9 12 l-8 25 -1 -27 c-1 -16 -5 -28
-11 -28 -5 0 -10 -5 -10 -11 0 -5 5 -7 10 -4 6 3 10 -4 10 -17 1 -20 2 -21 11
-5 5 9 15 17 20 17 6 0 3 -7 -5 -16 -19 -18 -31 -59 -22 -73 4 -5 2 -12 -4
-16 -6 -4 -8 -11 -5 -16 4 -5 1 -9 -5 -9 -6 0 -8 11 -5 28 5 26 5 26 -6 5 -15
-28 -33 -30 -24 -3 3 11 2 20 -3 20 -16 0 -21 -27 -9 -39 9 -9 8 -14 -3 -21
-21 -13 -5 -23 18 -11 16 8 21 7 26 -5 5 -12 1 -14 -15 -9 -20 7 -21 4 -15
-21 l6 -29 -15 25 -14 25 -1 -32 c0 -17 5 -35 10 -38 6 -3 10 -12 10 -18 0 -8
-3 -8 -9 1 -6 10 -10 7 -13 -12 -3 -14 -2 -26 2 -26 4 0 7 -6 8 -12 10 -109
116 -268 268 -402 138 -121 173 -149 274 -218 51 -35 100 -69 109 -75 15 -11
27 -6 82 30 237 156 438 335 526 470 60 92 112 221 124 307 26 185 -49 368
-193 474 -124 90 -350 93 -479 6 -39 -26 -46 -28 -64 -15 -37 27 -100 53 -150
64 -79 16 -135 21 -135 11z m-145 -69 c3 -5 1 -12 -5 -16 -5 -3 -10 1 -10 9 0
18 6 21 15 7z m-1 -67 c3 -8 2 -12 -4 -9 -6 3 -10 10 -10 16 0 14 7 11 14 -7z
m482 -212 c24 -16 34 -55 34 -136 l0 -86 89 0 c101 0 141 -19 141 -67 0 -52
-23 -63 -132 -63 l-98 0 0 -93 c0 -68 -4 -99 -16 -115 -18 -26 -59 -29 -92 -6
-20 14 -22 23 -22 115 l0 99 -93 0 c-107 0 -137 13 -137 60 0 51 38 70 141 70
l89 0 0 89 c0 74 3 92 21 115 20 25 53 33 75 18z m-569 -35 c0 -8 -6 -14 -14
-14 -9 0 -10 4 -2 14 6 7 12 13 14 13 1 0 2 -6 2 -13z m-3 -45 c3 -5 -1 -9 -9
-9 -8 0 -12 4 -9 9 3 4 7 8 9 8 2 0 6 -4 9 -8z m-3 -75 c-10 -9 -11 -8 -5 6 3
10 9 15 12 12 3 -3 0 -11 -7 -18z m-58 -66 c2 -10 1 -25 -4 -32 -6 -10 -9 -4
-9 19 0 36 5 42 13 13z m-19 -47 c3 -8 2 -12 -4 -9 -6 3 -10 10 -10 16 0 14 7
11 14 -7z m8 -66 c-6 -6 -7 0 -4 19 5 21 7 23 10 9 2 -10 0 -22 -6 -28z"/>
<path d="M1350 2615 c-14 -16 -10 -18 14 -9 9 3 16 10 16 15 0 14 -16 11 -30
-6z"/>
<path d="M1340 2560 c0 -5 5 -10 10 -10 6 0 10 5 10 10 0 6 -4 10 -10 10 -5 0
-10 -4 -10 -10z"/>
<path d="M1360 2531 c0 -6 5 -11 10 -11 6 0 10 -7 10 -15 0 -8 4 -15 10 -15
13 0 -4 43 -18 48 -7 2 -12 -1 -12 -7z"/>
<path d="M1300 2429 c0 -5 5 -7 10 -4 6 3 10 8 10 11 0 2 -4 4 -10 4 -5 0 -10
-5 -10 -11z"/>
<path d="M1280 2390 c0 -5 5 -10 10 -10 6 0 10 5 10 10 0 6 -4 10 -10 10 -5 0
-10 -4 -10 -10z"/>
<path d="M1306 2341 c-4 -7 -5 -15 -2 -18 9 -9 19 4 14 18 -4 11 -6 11 -12 0z"/>
<path d="M1270 2330 c0 -5 5 -10 10 -10 6 0 10 5 10 10 0 6 -4 10 -10 10 -5 0
-10 -4 -10 -10z"/>
<path d="M2996 1915 c17 -261 -64 -469 -234 -597 -82 -63 -293 -178 -324 -178
-2 0 22 27 53 60 108 113 139 226 81 291 l-27 31 -33 -50 c-47 -74 -138 -147
-273 -221 -20 -11 -69 -51 -108 -89 -131 -127 -164 -257 -116 -462 16 -71 53
-191 64 -208 6 -10 35 13 107 85 58 56 135 121 184 152 96 61 180 115 290 187
81 53 266 231 290 279 8 17 27 50 41 75 14 25 39 84 55 130 26 78 29 97 29
220 0 118 -4 148 -29 235 -15 55 -34 111 -42 125 -13 22 -14 16 -8 -65z"/>
<path d="M1298 1483 c-18 -23 -28 -49 -28 -70 0 -48 61 -160 120 -220 29 -29
48 -53 43 -53 -19 1 -83 28 -156 68 -43 23 -82 40 -87 37 -4 -3 -26 13 -48 34
-22 22 -44 36 -48 32 -5 -3 -8 -4 -7 -2 2 2 -5 10 -15 18 -10 9 -11 12 -2 7 8
-4 -1 9 -19 29 -35 37 -48 47 -35 25 4 -6 8 -24 10 -40 2 -27 -1 -29 -22 -24
-14 4 -24 2 -24 -4 0 -5 11 -10 25 -10 23 0 31 -14 26 -44 -1 -4 6 -14 14 -20
14 -10 12 -12 -12 -10 -38 2 -39 2 -25 16 15 15 16 48 1 48 -6 0 -9 -6 -6 -12
2 -7 -7 -23 -20 -35 -25 -24 -25 -23 15 -68 16 -18 17 -44 0 -27 -16 16 -28
15 -28 -3 0 -8 7 -15 15 -15 8 0 15 -9 15 -21 0 -11 4 -18 9 -15 5 3 12 -5 15
-19 4 -14 13 -25 21 -25 8 0 15 -7 15 -15 0 -8 4 -15 8 -15 4 0 30 -20 57 -45
28 -25 53 -45 56 -45 3 0 26 -16 50 -35 24 -19 48 -35 53 -35 9 0 106 -63 241
-155 86 -58 183 -146 229 -208 l29 -38 24 57 c27 62 57 194 68 289 8 75 -15
191 -49 249 -40 69 -135 152 -251 221 -37 22 -82 52 -100 68 -18 15 -37 27
-42 27 -5 0 -15 10 -23 21 -8 12 -26 36 -40 54 -14 18 -29 40 -35 49 -8 13
-14 10 -37 -21z m-248 -127 c0 -3 -4 -8 -10 -11 -5 -3 -10 -1 -10 4 0 6 5 11
10 11 6 0 10 -2 10 -4z m0 -36 c0 -5 -5 -10 -11 -10 -5 0 -7 5 -4 10 3 6 8 10
11 10 2 0 4 -4 4 -10z m-46 -96 c9 -24 7 -27 -9 -10 -17 17 -19 26 -6 26 5 0
12 -7 15 -16z m104 -19 c-3 -3 -9 2 -12 12 -6 14 -5 15 5 6 7 -7 10 -15 7 -18z
m-81 -22 c-3 -10 -5 -4 -5 12 0 17 2 24 5 18 2 -7 2 -21 0 -30z m7 -59 c3 -8
2 -12 -4 -9 -6 3 -10 10 -10 16 0 14 7 11 14 -7z"/>
</g>
</svg>
