<?xml version="1.0" standalone="no"?>
<!DOCTYPE svg PUBLIC "-//W3C//DTD SVG 20010904//EN"
 "http://www.w3.org/TR/2001/REC-SVG-20010904/DTD/svg10.dtd">
<svg version="1.0" xmlns="http://www.w3.org/2000/svg"
 width="24.000000pt" height="24.000000pt" viewBox="0 0 24.000000 24.000000"
 preserveAspectRatio="xMidYMid meet">

<g transform="translate(0.000000,24.000000) scale(0.100000,-0.100000)"
fill="#000000" stroke="none">
<path d="M95 230 c3 -5 0 -10 -8 -10 -18 0 -30 -27 -17 -35 15 -9 12 -25 -5
-25 -8 0 -15 5 -15 10 0 16 -20 12 -26 -5 -16 -40 50 -125 96 -125 46 0 112
85 96 125 -6 17 -26 21 -26 5 0 -5 -7 -10 -15 -10 -17 0 -20 16 -5 25 13 8 1
35 -17 35 -8 0 -11 5 -8 10 4 6 -7 10 -25 10 -18 0 -29 -4 -25 -10z m63 -77
c8 -8 7 -13 -3 -17 -8 -3 -15 0 -15 7 0 8 -4 7 -10 -3 -9 -13 -11 -13 -20 0
-6 10 -10 11 -10 3 0 -7 -7 -10 -15 -7 -22 9 2 29 35 29 15 0 32 -5 38 -12z"/>
<path d="M100 21 c0 -5 -8 -12 -17 -14 -10 -3 7 -5 37 -5 30 0 47 2 38 5 -10
2 -18 9 -18 14 0 5 -9 9 -20 9 -11 0 -20 -4 -20 -9z"/>
</g>
</svg>
