<?xml version="1.0" standalone="no"?>
<!DOCTYPE svg PUBLIC "-//W3C//DTD SVG 20010904//EN"
 "http://www.w3.org/TR/2001/REC-SVG-20010904/DTD/svg10.dtd">
<svg version="1.0" xmlns="http://www.w3.org/2000/svg"
 width="24.000000pt" height="24.000000pt" viewBox="0 0 24.000000 24.000000"
 preserveAspectRatio="xMidYMid meet">

<g transform="translate(0.000000,24.000000) scale(0.100000,-0.100000)"
fill="#000000" stroke="none">
<path d="M82 205 c-24 -24 -35 -47 -39 -77 -4 -24 -13 -48 -22 -54 -22 -17 3
-44 39 -44 16 0 30 -7 34 -15 3 -8 15 -15 26 -15 11 0 23 7 26 15 4 8 18 15
34 15 36 0 61 27 39 44 -9 6 -18 30 -22 54 -4 30 -15 53 -39 77 -18 19 -35 35
-38 35 -3 0 -20 -16 -38 -35z m78 -25 c13 -13 20 -33 20 -60 0 -27 5 -43 15
-46 37 -15 8 -24 -75 -24 -83 0 -112 9 -75 24 10 3 15 19 15 46 0 45 26 80 60
80 11 0 29 -9 40 -20z m-27 -157 c-7 -2 -19 -2 -25 0 -7 3 -2 5 12 5 14 0 19
-2 13 -5z"/>
</g>
</svg>
