<?xml version="1.0" standalone="no"?>
<!DOCTYPE svg PUBLIC "-//W3C//DTD SVG 20010904//EN"
 "http://www.w3.org/TR/2001/REC-SVG-20010904/DTD/svg10.dtd">
<svg version="1.0" xmlns="http://www.w3.org/2000/svg"
 width="24.000000pt" height="24.000000pt" viewBox="0 0 24.000000 24.000000"
 preserveAspectRatio="xMidYMid meet">

<g transform="translate(0.000000,24.000000) scale(0.100000,-0.100000)"
fill="#000000" stroke="none">
<path d="M63 202 l-53 -26 0 -56 0 -56 55 -27 55 -27 55 27 55 27 0 56 0 56
-55 27 c-31 15 -56 27 -58 26 -1 0 -26 -12 -54 -27z m101 -4 c25 -12 43 -25
40 -30 -3 -4 0 -8 5 -8 6 0 11 -20 11 -45 0 -42 -2 -46 -40 -65 -21 -11 -42
-20 -45 -20 -3 0 -5 20 -5 45 0 25 5 45 10 45 6 0 10 -9 10 -19 0 -17 3 -18
25 -8 18 9 25 20 25 40 0 23 -8 31 -45 49 -25 12 -45 26 -45 30 0 12 5 10 54
-14z m-22 -19 c29 -15 37 -23 28 -29 -14 -9 -100 28 -100 42 0 14 29 9 72 -13z
m-39 -21 c29 -15 37 -23 25 -26 -16 -3 -98 33 -98 43 0 11 34 3 73 -17z m-33
-18 c38 -19 40 -23 40 -65 0 -25 -2 -45 -5 -45 -3 0 -24 9 -45 20 -38 19 -40
23 -40 65 0 25 2 45 5 45 3 0 24 -9 45 -20z m120 -9 c0 -5 -7 -11 -15 -15 -9
-3 -15 0 -15 9 0 8 7 15 15 15 8 0 15 -4 15 -9z"/>
</g>
</svg>
