<?xml version="1.0" standalone="no"?>
<!DOCTYPE svg PUBLIC "-//W3C//DTD SVG 20010904//EN"
 "http://www.w3.org/TR/2001/REC-SVG-20010904/DTD/svg10.dtd">
<svg version="1.0" xmlns="http://www.w3.org/2000/svg"
 width="24.000000pt" height="24.000000pt" viewBox="0 0 24.000000 24.000000"
 preserveAspectRatio="xMidYMid meet">

<g transform="translate(0.000000,24.000000) scale(0.100000,-0.100000)"
fill="#000000" stroke="none">
<path d="M38 219 c-30 -17 -20 -26 27 -26 48 0 63 20 23 31 -29 7 -30 7 -50
-5z"/>
<path d="M160 220 c-18 -11 -4 -42 17 -38 10 2 19 10 21 19 4 19 -19 31 -38
19z"/>
<path d="M21 141 c-21 -41 -17 -62 6 -33 13 16 14 15 8 -5 -7 -26 4 -93 15
-93 5 0 11 10 13 22 l4 23 2 -22 c0 -13 5 -23 10 -23 12 0 23 66 16 93 -6 21
-5 21 9 3 13 -16 18 -17 31 -6 13 11 15 6 15 -39 0 -58 19 -71 21 -13 2 33 2
34 6 7 8 -55 23 -52 23 4 0 47 2 52 15 41 26 -21 29 -3 5 34 -25 41 -63 49
-80 16 -14 -27 -24 -25 -38 5 -19 40 -57 34 -81 -14z"/>
</g>
</svg>
