<?xml version="1.0" standalone="no"?>
<!DOCTYPE svg PUBLIC "-//W3C//DTD SVG 20010904//EN"
 "http://www.w3.org/TR/2001/REC-SVG-20010904/DTD/svg10.dtd">
<svg version="1.0" xmlns="http://www.w3.org/2000/svg"
 width="24.000000pt" height="24.000000pt" viewBox="0 0 24.000000 24.000000"
 preserveAspectRatio="xMidYMid meet">

<g transform="translate(0.000000,24.000000) scale(0.100000,-0.100000)"
fill="#000000" stroke="none">
<path d="M63 170 c-6 -23 -14 -25 -31 -8 -18 18 -33 -7 -30 -47 l3 -30 106 -3
c84 -2 109 0 118 12 13 16 -5 27 -117 77 -44 19 -44 19 -49 -1z m66 -39 c11
-7 11 -10 0 -17 -8 -5 -24 -9 -36 -9 -21 -1 -21 0 -6 17 18 20 22 21 42 9z"/>
<path d="M225 81 c-4 -7 -51 -11 -118 -12 -97 -1 -106 -2 -67 -11 86 -17 224
1 198 27 -3 4 -9 2 -13 -4z"/>
</g>
</svg>
