<?xml version="1.0" standalone="no"?>
<!DOCTYPE svg PUBLIC "-//W3C//DTD SVG 20010904//EN"
 "http://www.w3.org/TR/2001/REC-SVG-20010904/DTD/svg10.dtd">
<svg version="1.0" xmlns="http://www.w3.org/2000/svg"
 width="24.000000pt" height="24.000000pt" viewBox="0 0 24.000000 24.000000"
 preserveAspectRatio="xMidYMid meet">

<g transform="translate(0.000000,24.000000) scale(0.100000,-0.100000)"
fill="#000000" stroke="none">
<path d="M17 223 c-4 -3 -7 -28 -7 -55 0 -41 3 -48 20 -48 11 0 20 7 20 15 0
8 3 15 8 15 4 0 7 -26 7 -57 l0 -58 33 -3 c17 -2 32 -8 32 -14 0 -7 4 -7 13 0
6 6 28 12 47 14 l35 3 0 55 c0 49 -2 55 -22 58 -19 3 -23 10 -23 43 l0 39 -78
0 c-43 0 -82 -3 -85 -7z m111 -20 c-10 -2 -26 -2 -35 0 -10 3 -2 5 17 5 19 0
27 -2 18 -5z m-40 -20 c-10 -2 -26 -2 -35 0 -10 3 -2 5 17 5 19 0 27 -2 18 -5z
m55 0 c-7 -2 -19 -2 -25 0 -7 3 -2 5 12 5 14 0 19 -2 13 -5z m-60 -20 c-7 -2
-21 -2 -30 0 -10 3 -4 5 12 5 17 0 24 -2 18 -5z m44 1 c-3 -3 -12 -4 -19 -1
-8 3 -5 6 6 6 11 1 17 -2 13 -5z m39 -101 c-6 -15 -32 -18 -40 -4 -4 5 3 7 14
4 24 -6 26 3 5 23 -11 11 -15 12 -15 3 0 -7 -3 -10 -6 -7 -3 3 0 15 7 26 12
20 13 20 26 -6 8 -14 11 -32 9 -39z"/>
</g>
</svg>
