<?xml version="1.0" standalone="no"?>
<!DOCTYPE svg PUBLIC "-//W3C//DTD SVG 20010904//EN"
 "http://www.w3.org/TR/2001/REC-SVG-20010904/DTD/svg10.dtd">
<svg version="1.0" xmlns="http://www.w3.org/2000/svg"
 width="24.000000pt" height="24.000000pt" viewBox="0 0 24.000000 24.000000"
 preserveAspectRatio="xMidYMid meet">

<g transform="translate(0.000000,24.000000) scale(0.100000,-0.100000)"
fill="#000000" stroke="none">
<path d="M63 220 c-34 -21 -63 -66 -63 -100 0 -54 65 -120 118 -120 57 0 122
64 122 120 0 56 -65 120 -122 120 -13 0 -37 -9 -55 -20z m121 -21 c31 -25 46
-74 33 -112 -5 -15 -11 -27 -13 -27 -1 0 -15 12 -29 26 -20 20 -23 29 -14 40
28 34 -15 84 -61 69 -24 -8 -37 -50 -21 -69 9 -11 6 -20 -14 -40 -14 -14 -28
-26 -29 -26 -12 0 -22 60 -14 87 18 67 106 96 162 52z m-40 -25 c9 -8 16 -19
16 -24 0 -11 -29 -40 -40 -40 -11 0 -40 29 -40 40 0 5 7 16 16 24 19 20 29 20
48 0z m6 -84 c11 -6 24 -19 30 -31 10 -17 7 -21 -24 -34 -32 -14 -40 -14 -72
0 -31 13 -34 17 -24 34 19 37 56 49 90 31z"/>
</g>
</svg>
